<svg xmlns="http://www.w3.org/2000/svg" width="1280" height="760" viewBox="0 0 1280 760"><rect x="5" y="5" width="1270" height="750" rx="8" fill="#DFD9C1" stroke="#7E8974" stroke-width="4"/><text x="65" y="45" font-family="sans-serif" font-size="24" fill="#344B3A">INSTITUT SAINTE-ODILE · ACT 1</text><path d="M310 450L360 450" stroke="#344B3A" stroke-width="12"/><path d="M620 450L670 450" stroke="#344B3A" stroke-width="12"/><path d="M890 450L940 450" stroke="#344B3A" stroke-width="12"/><path d="M1060 260L1060 360" stroke="#344B3A" stroke-width="12"/><path d="M490 240L490 320" stroke="#344B3A" stroke-width="12"/><g id="G01"><rect x="70" y="360" width="240" height="180" fill="#CBCAB0" stroke="#344B3A" stroke-width="4"/><text x="190.0" y="425" text-anchor="middle" font-family="monospace" font-size="26" fill="#344B3A">G01</text><text x="190.0" y="470" text-anchor="middle" font-family="sans-serif" font-size="23" fill="#344B3A">Dayroom</text></g><g id="G02"><rect x="360" y="320" width="260" height="260" fill="#CBCAB0" stroke="#344B3A" stroke-width="4"/><text x="490.0" y="385" text-anchor="middle" font-family="monospace" font-size="26" fill="#344B3A">G02</text><text x="490.0" y="430" text-anchor="middle" font-family="sans-serif" font-size="23" fill="#344B3A">Lobby</text></g><g id="G03"><rect x="670" y="360" width="220" height="180" fill="#CBCAB0" stroke="#344B3A" stroke-width="4"/><text x="780.0" y="425" text-anchor="middle" font-family="monospace" font-size="26" fill="#344B3A">G03</text><text x="780.0" y="470" text-anchor="middle" font-family="sans-serif" font-size="23" fill="#344B3A">Reception</text></g><g id="G04"><rect x="940" y="360" width="240" height="180" fill="#CBCAB0" stroke="#344B3A" stroke-width="4"/><text x="1060.0" y="425" text-anchor="middle" font-family="monospace" font-size="26" fill="#344B3A">G04</text><text x="1060.0" y="470" text-anchor="middle" font-family="sans-serif" font-size="23" fill="#344B3A">Records</text></g><g id="G05"><rect x="940" y="80" width="240" height="180" fill="#CBCAB0" stroke="#344B3A" stroke-width="4"/><text x="1060.0" y="145" text-anchor="middle" font-family="monospace" font-size="26" fill="#344B3A">G05</text><text x="1060.0" y="190" text-anchor="middle" font-family="sans-serif" font-size="23" fill="#344B3A">Administrator</text></g><g id="G06"><rect x="370" y="60" width="240" height="180" fill="#CBCAB0" stroke="#344B3A" stroke-width="4"/><text x="490.0" y="125" text-anchor="middle" font-family="monospace" font-size="26" fill="#344B3A">G06</text><text x="490.0" y="170" text-anchor="middle" font-family="sans-serif" font-size="23" fill="#344B3A">Chapel</text></g><text x="65" y="680" font-family="sans-serif" font-size="22" fill="#344B3A">SCHEMATIC · NOT TO SCALE · Room states and lock icons are runtime overlays.</text></svg>